<?xml version="1.0" standalone="no"?>
<!DOCTYPE svg PUBLIC "-//W3C//DTD SVG 20010904//EN"
 "http://www.w3.org/TR/2001/REC-SVG-20010904/DTD/svg10.dtd">
<svg version="1.0" xmlns="http://www.w3.org/2000/svg"
 width="512.000000pt" height="512.000000pt" viewBox="0 0 512.000000 512.000000"
 preserveAspectRatio="xMidYMid meet">
<metadata>
Created by potrace 1.14, written by Peter Selinger 2001-2017
</metadata>
<g transform="translate(0.000000,512.000000) scale(0.100000,-0.100000)"
fill="#000000" stroke="none">
<path d="M420 3280 l0 -390 160 0 160 0 0 -460 0 -461 973 4 c946 3 974 3
1042 23 151 44 251 108 310 197 126 190 106 476 -43 608 -82 72 -151 100 -397
160 -71 17 -148 40 -171 50 -50 24 -98 73 -111 114 l-10 30 -143 3 c-79 1
-147 -1 -152 -6 -16 -16 10 -144 42 -208 37 -76 101 -135 188 -177 35 -16 145
-49 245 -74 271 -66 327 -105 327 -225 0 -76 -17 -116 -70 -161 -88 -75 -39
-71 -947 -75 l-813 -3 -2 463 -3 463 -162 3 -163 2 0 120 0 120 575 0 575 0 0
135 0 135 -705 0 -705 0 0 -390z"/>
<path d="M2431 3645 c-77 -17 -177 -63 -230 -105 -40 -32 -101 -110 -101 -129
0 -7 303 -11 993 -13 l992 -3 50 -23 c65 -30 91 -55 111 -109 23 -58 14 -142
-20 -193 -40 -60 -146 -100 -267 -100 l-49 0 0 -129 0 -129 101 -7 c179 -13
259 -47 298 -127 40 -84 23 -186 -44 -247 -75 -69 -137 -83 -382 -89 l-213 -4
-2 459 -3 458 -155 0 -155 0 0 -590 0 -590 320 -3 c337 -3 452 5 578 39 200
56 351 192 394 356 21 80 14 212 -15 276 -30 67 -110 148 -182 183 -33 16 -60
32 -60 36 0 4 12 14 28 22 46 24 110 98 139 161 25 54 28 71 28 165 0 98 -2
110 -32 171 -57 114 -164 202 -308 250 l-70 24 -840 2 c-687 1 -852 -1 -904
-12z"/>
<path d="M1260 2815 l0 -346 128 3 127 3 3 213 2 212 155 0 155 0 0 130 0 130
-285 0 -285 0 0 -345z"/>
<path d="M785 1700 c-3 -11 -15 -20 -26 -20 -17 0 -19 -8 -19 -85 l0 -86 57 3
c71 4 88 28 19 28 -39 0 -46 3 -46 20 0 16 7 20 35 20 46 0 49 27 3 32 -48 4
-44 32 5 36 39 3 55 32 16 32 -16 0 -19 4 -14 20 4 14 2 20 -9 20 -8 0 -18 -9
-21 -20z"/>
<path d="M487 1674 c-11 -12 3 -24 29 -24 23 0 24 -2 24 -71 0 -62 2 -70 18
-67 14 3 18 16 20 71 3 64 4 67 27 67 16 0 25 6 25 15 0 12 -14 15 -68 15 -38
0 -72 -3 -75 -6z"/>
<path d="M991 1654 c-50 -63 -11 -149 65 -142 48 4 59 28 12 28 -42 0 -58 15
-58 55 0 40 16 55 58 55 49 0 36 24 -15 28 -34 3 -44 -1 -62 -24z"/>
<path d="M1214 1667 c-3 -8 -4 -45 -2 -83 2 -55 6 -69 20 -72 14 -3 17 6 20
50 l3 53 38 -53 c55 -77 72 -70 72 33 0 67 -3 80 -17 83 -14 3 -17 -6 -20 -49
l-3 -53 -35 52 c-34 50 -65 66 -76 39z"/>
<path d="M1490 1595 c0 -78 2 -85 20 -85 18 0 20 7 20 85 0 78 -2 85 -20 85
-18 0 -20 -7 -20 -85z"/>
<path d="M1672 1657 c-15 -16 -22 -36 -22 -65 0 -56 30 -84 84 -80 51 4 62 28
12 28 -27 0 -40 6 -53 26 -15 24 -15 29 -2 53 10 17 26 28 47 31 47 7 44 24
-3 28 -32 2 -45 -2 -63 -21z"/>
<path d="M1910 1660 c-29 -29 -28 -99 3 -128 56 -53 137 -12 137 69 0 52 -27
79 -80 79 -27 0 -47 -7 -60 -20z m95 -59 c0 -75 -66 -86 -73 -12 -5 50 3 63
40 59 32 -3 33 -5 33 -47z"/>
<path d="M2321 1666 c-7 -8 -11 -27 -9 -42 2 -21 11 -30 38 -39 48 -16 46 -40
-3 -40 -54 0 -47 -29 9 -33 83 -6 101 70 23 101 -47 19 -44 37 7 37 50 0 39
24 -13 28 -26 2 -44 -2 -52 -12z"/>
<path d="M2573 1665 c-44 -31 -35 -131 12 -149 25 -9 64 -7 85 4 24 13 43 70
34 104 -13 51 -84 74 -131 41z m85 -27 c7 -7 12 -26 12 -43 0 -37 -16 -55 -47
-55 -25 0 -43 26 -43 62 0 30 17 48 45 48 12 0 26 -5 33 -12z"/>
<path d="M2830 1595 l0 -85 55 0 c42 0 55 3 55 15 0 11 -11 15 -40 15 l-40 0
0 70 c0 56 -3 70 -15 70 -12 0 -15 -16 -15 -85z"/>
<path d="M3075 1603 c-17 -42 -31 -80 -33 -85 -2 -4 5 -8 16 -8 12 0 23 9 27
20 4 14 15 20 35 20 19 0 33 -7 40 -20 10 -19 40 -28 40 -12 0 4 -14 42 -31
85 -41 101 -55 101 -94 0z m65 -15 c0 -5 -7 -8 -15 -8 -15 0 -20 21 -8 33 7 7
23 -11 23 -25z"/>
<path d="M3314 1667 c-3 -8 -4 -45 -2 -83 2 -56 6 -69 21 -72 13 -3 17 3 17
27 0 39 13 39 42 1 12 -16 30 -30 40 -30 23 0 23 4 -4 41 -21 28 -22 31 -5 40
21 12 22 52 1 73 -20 20 -102 22 -110 3z m86 -37 c0 -15 -7 -20 -25 -20 -18 0
-25 5 -25 20 0 15 7 20 25 20 18 0 25 -5 25 -20z"/>
<path d="M3710 1595 l0 -85 43 0 c23 0 53 7 65 16 22 15 30 58 13 68 -4 3 -6
18 -3 32 7 36 -19 54 -75 54 l-43 0 0 -85z m86 44 c7 -12 -12 -29 -33 -29 -7
0 -13 9 -13 20 0 22 34 28 46 9z m7 -66 c11 -10 -13 -33 -34 -33 -12 0 -19 7
-19 20 0 14 7 20 23 20 13 0 27 -3 30 -7z"/>
<path d="M3983 1665 c-25 -18 -34 -57 -21 -101 24 -88 158 -63 158 29 0 51
-33 87 -79 87 -20 0 -46 -7 -58 -15z m85 -27 c7 -7 12 -26 12 -43 0 -37 -16
-55 -47 -55 -25 0 -43 26 -43 62 0 30 17 48 45 48 12 0 26 -5 33 -12z"/>
<path d="M4255 1603 c-17 -42 -31 -80 -33 -85 -2 -4 5 -8 16 -8 12 0 23 9 27
20 4 14 15 20 35 20 19 0 33 -7 40 -20 10 -19 40 -28 40 -12 0 4 -14 42 -31
85 -41 101 -55 101 -94 0z m65 -15 c0 -5 -7 -8 -15 -8 -15 0 -20 21 -8 33 7 7
23 -11 23 -25z"/>
<path d="M4470 1665 c0 -9 9 -15 25 -15 24 0 25 -2 25 -70 0 -56 3 -70 15 -70
12 0 15 14 15 69 0 68 1 70 27 73 14 2 28 9 31 16 3 9 -15 12 -67 12 -56 0
-71 -3 -71 -15z"/>
</g>
</svg>
